<svg id="constellation" xmlns="http://www.w3.org/2000/svg" width="60.917" height="59.448" viewBox="0 0 60.917 59.448">
  <path id="Tracé_75" data-name="Tracé 75" d="M416.2,289.06v-8.867a4.842,4.842,0,1,0-5.263-7.309l-1.893-.626a1.191,1.191,0,1,0-.748,2.262l1.885.623c-.009.118-.015.236-.015.356a4.85,4.85,0,0,0,3.651,4.693v8.867a4.843,4.843,0,1,0,2.383,0Zm-3.651-13.56a2.46,2.46,0,1,1,2.46,2.46A2.462,2.462,0,0,1,412.551,275.5Zm2.46,20.713a2.46,2.46,0,1,1,2.459-2.46A2.462,2.462,0,0,1,415.01,296.212Z" transform="translate(-358.936 -239.147)" fill="#fff"/>
  <path id="Tracé_76" data-name="Tracé 76" d="M41.061,80.309l-2.3-.761c.006-.1.011-.2.011-.307a4.839,4.839,0,0,0-6.843-4.408L23.184,63.905a4.842,4.842,0,1,0-7.709.016l-8.651,10.9A4.851,4.851,0,1,0,8.69,76.307l8.651-10.9a4.825,4.825,0,0,0,3.983-.008l8.741,10.928a4.84,4.84,0,1,0,7.959,5.493l2.288.756a1.191,1.191,0,1,0,.748-2.262ZM4.842,81.7A2.459,2.459,0,1,1,7.3,79.241,2.462,2.462,0,0,1,4.842,81.7ZM16.864,60.987a2.459,2.459,0,1,1,2.459,2.459A2.462,2.462,0,0,1,16.864,60.987ZM33.926,81.7a2.459,2.459,0,1,1,2.459-2.459A2.462,2.462,0,0,1,33.926,81.7Z" transform="translate(0 -50.191)" fill="#fff"/>
  <path id="Tracé_77" data-name="Tracé 77" d="M367.208,60.739a3.574,3.574,0,1,0-3.574,3.574A3.578,3.578,0,0,0,367.208,60.739Zm-3.574,1.191a1.191,1.191,0,1,1,1.191-1.191A1.193,1.193,0,0,1,363.634,61.93Z" transform="translate(-317.165 -51.089)" fill="#fff"/>
  <path id="Tracé_78" data-name="Tracé 78" d="M481.392,130.16a1.192,1.192,0,1,0,1.192,1.192A1.192,1.192,0,0,0,481.392,130.16Z" transform="translate(-422.993 -115.388)" fill="#fff"/>
  <path id="Tracé_79" data-name="Tracé 79" d="M281.192,32.544A1.192,1.192,0,1,0,280,31.352,1.192,1.192,0,0,0,281.192,32.544Z" transform="translate(-246.643 -27.301)" fill="#fff"/>
  <path id="Tracé_80" data-name="Tracé 80" d="M441.4,10.93h1.191v1.191a1.191,1.191,0,0,0,2.383,0V10.93h1.191a1.191,1.191,0,1,0,0-2.383h-1.191V7.356a1.191,1.191,0,0,0-2.383,0V8.548H441.4a1.191,1.191,0,1,0,0,2.383Z" transform="translate(-387.761 -6.165)" fill="#fff"/>
  <path id="Tracé_81" data-name="Tracé 81" d="M161.186,458.162a1.192,1.192,0,1,0,1.192,1.192A1.192,1.192,0,0,0,161.186,458.162Z" transform="translate(-140.933 -404.314)" fill="#fff"/>
  <path id="Tracé_82" data-name="Tracé 82" d="M124.763,338.932h1.191a1.191,1.191,0,1,0,0-2.383h-1.191v-1.191a1.191,1.191,0,0,0-2.383,0v1.191h-1.191a1.191,1.191,0,0,0,0,2.383h1.191v1.191a1.191,1.191,0,0,0,2.383,0Z" transform="translate(-105.702 -295.091)" fill="#fff"/>
  <ellipse id="Ellipse_12" data-name="Ellipse 12" cx="1.192" cy="1.192" rx="1.192" ry="1.192" transform="translate(44.019 31.553)" fill="#fff"/>
</svg>
