<svg id="constellation_1_" data-name="constellation (1)" xmlns="http://www.w3.org/2000/svg" width="73" height="52.427" viewBox="0 0 73 52.427">
  <path id="Tracé_63" data-name="Tracé 63" d="M220.937,5.715a3.345,3.345,0,0,0-2.365.977l-5.743-2.872a3.289,3.289,0,0,0,.033-.466,3.355,3.355,0,1,0-5.787,2.308l-6.755,12.76A4.5,4.5,0,0,0,195,21.24L177.637,19.31a1.069,1.069,0,0,0-.236,2.126l17.361,1.929a4.5,4.5,0,0,0,4.459,3.918,4.577,4.577,0,0,0,.6-.041l4.727,12.08a1.069,1.069,0,0,0,1.992-.78l-4.728-12.081a4.49,4.49,0,0,0,.4-7.035l6.756-12.761a3.345,3.345,0,0,0,2.907-.933L217.615,8.6a3.355,3.355,0,1,0,3.322-2.889Zm-24.075,17.07a2.359,2.359,0,1,1,2.359,2.359A2.362,2.362,0,0,1,196.862,22.785ZM209.508,4.571a1.216,1.216,0,1,1,1.216-1.216A1.218,1.218,0,0,1,209.508,4.571Zm11.429,5.715a1.216,1.216,0,1,1,1.216-1.216A1.218,1.218,0,0,1,220.937,10.286Zm0,0" transform="translate(-151.292)" fill="#fff"/>
  <path id="Tracé_64" data-name="Tracé 64" d="M58.216,141.942c-.055,0-.109,0-.163,0l-1.011-2.583a1.069,1.069,0,0,0-1.992.78l1.011,2.584a3.4,3.4,0,0,0-.479.494l-24.894-8.891a4.5,4.5,0,1,0-8.972-.463c0,.078,0,.155.006.232l-15.63,4.688a3.38,3.38,0,0,0-.276-.34l10.671-19.563A3.349,3.349,0,0,0,20.112,117l1.723.191a1.069,1.069,0,0,0,.236-2.125l-1.722-.192a3.355,3.355,0,1,0-5.739,2.99L3.939,137.423a3.355,3.355,0,1,0,2.768,3.414l15.631-4.689a4.494,4.494,0,0,0,7.628.2l24.9,8.891c0,.021,0,.042,0,.062a3.355,3.355,0,1,0,3.356-3.355ZM17.07,114.365a1.216,1.216,0,1,1-1.216,1.216A1.218,1.218,0,0,1,17.07,114.365ZM3.355,141.942a1.216,1.216,0,1,1,1.216-1.216A1.218,1.218,0,0,1,3.355,141.942Zm22.859-5.715a2.359,2.359,0,1,1,2.359-2.359A2.362,2.362,0,0,1,26.214,136.228Zm32,10.287a1.217,1.217,0,1,1,1.216-1.216A1.218,1.218,0,0,1,58.216,146.514Zm0,0" transform="translate(0 -96.226)" fill="#fff"/>
  <path id="Tracé_65" data-name="Tracé 65" d="M232.78,53.354a1.07,1.07,0,0,0,1.512,0l.959-.959.958.959a1.069,1.069,0,0,0,1.512-1.512l-.959-.958.959-.958a1.069,1.069,0,0,0-1.512-1.512l-.958.958-.959-.958a1.069,1.069,0,0,0-1.512,1.512l.958.958-.958.958A1.069,1.069,0,0,0,232.78,53.354Zm0,0" transform="translate(-199.322 -41.242)" fill="#fff"/>
  <path id="Tracé_66" data-name="Tracé 66" d="M141.915,322.931H140.7v-1.217a1.069,1.069,0,0,0-2.139,0v1.217h-1.217a1.069,1.069,0,1,0,0,2.139h1.217v1.216a1.069,1.069,0,0,0,2.139,0v-1.216h1.216a1.069,1.069,0,1,0,0-2.139Zm0,0" transform="translate(-116.844 -274.928)" fill="#fff"/>
  <path id="Tracé_67" data-name="Tracé 67" d="M421.338,170.054h-.645v-.645a1.069,1.069,0,0,0-2.139,0v.645h-.645a1.069,1.069,0,0,0,0,2.139h.645v.645a1.069,1.069,0,0,0,2.139,0v-.645h.645a1.069,1.069,0,0,0,0-2.139Zm0,0" transform="translate(-357.408 -144.338)" fill="#fff"/>
</svg>
