<svg id="constellation_2_" data-name="constellation (2)" xmlns="http://www.w3.org/2000/svg" width="73" height="73" viewBox="0 0 73 73">
  <path id="Tracé_68" data-name="Tracé 68" d="M34.979,309.055,33.206,310.6H32.162l-.751-.752a1.069,1.069,0,0,0-1.514,0l-.751.752H28.083a1.069,1.069,0,0,0-1.069,1.07v1.062l-.752.751a1.068,1.068,0,0,0-.238.363l-8.95,1.329-.112-.114-.011-1.6A1.069,1.069,0,0,0,15.89,312.4l-1.6-.011-1.137-1.122a1.07,1.07,0,0,0-1.5,0l-1.137,1.122-1.6.011a1.069,1.069,0,0,0-1.062,1.062l-.011,1.6L6.724,316.2a1.069,1.069,0,0,0,0,1.5l1.122,1.137.011,1.6A1.145,1.145,0,0,0,9.046,321.5l-3.478,7.278-.106-.106a1.069,1.069,0,0,0-1.514,0l-.751.752H2.134a1.069,1.069,0,0,0-1.069,1.07v1.063l-.752.751a1.069,1.069,0,0,0,0,1.514l.752.751v1.062a1.069,1.069,0,0,0,1.069,1.07H3.2l.751.752a1.07,1.07,0,0,0,1.514,0l.751-.752H7.276a1.069,1.069,0,0,0,1.069-1.07v-1.062l.752-.751a1.069,1.069,0,0,0,0-1.514l-.752-.751V330.49a1.066,1.066,0,0,0-.741-1.018l3.52-7.365.529.522a1.069,1.069,0,0,0,1.5,0l1.137-1.122,1.6-.011a1.069,1.069,0,0,0,1.062-1.062l.011-1.6,1.122-1.137a1.064,1.064,0,0,0,.29-.556l8.641-1.283v.949a1.069,1.069,0,0,0,1.069,1.07h1.063l.751.752a1.07,1.07,0,0,0,1.514,0l.751-.752h1.063a1.069,1.069,0,0,0,1.069-1.07v-1.062l.752-.751a1.069,1.069,0,0,0,0-1.514l-.752-.751v-.244l2.09-1.82a1.069,1.069,0,1,0-1.4-1.612ZM6.519,333.367a1.069,1.069,0,0,0-.314.758v.435H5.769a1.07,1.07,0,0,0-.757.314l-.307.308-.307-.308a1.069,1.069,0,0,0-.757-.314H3.2v-.435a1.069,1.069,0,0,0-.314-.758l-.308-.307.308-.307a1.069,1.069,0,0,0,.314-.758v-.435h.436a1.07,1.07,0,0,0,.757-.314l.307-.308.307.308a1.069,1.069,0,0,0,.757.314h.436v.435a1.069,1.069,0,0,0,.314.758l.308.307Zm8.616-15.724a1.07,1.07,0,0,0-.308.744l-.007.977-.977.007a1.07,1.07,0,0,0-.744.308l-.695.686-.7-.686a1.07,1.07,0,0,0-.744-.308l-.977-.007-.007-.977a1.07,1.07,0,0,0-.308-.744l-.686-.695.686-.7a1.07,1.07,0,0,0,.308-.744l.007-.977.977-.007a1.071,1.071,0,0,0,.744-.308l.695-.686.7.686a1.07,1.07,0,0,0,.744.308l.977.007.007.977a1.07,1.07,0,0,0,.308.744l.686.7Zm17.334-3.1a1.069,1.069,0,0,0-.314.758v.435h-.436a1.07,1.07,0,0,0-.757.314l-.307.308-.307-.308a1.069,1.069,0,0,0-.757-.314h-.436V315.3a1.069,1.069,0,0,0-.314-.758l-.308-.307.308-.307a1.069,1.069,0,0,0,.314-.758v-.435h.436a1.07,1.07,0,0,0,.757-.314l.307-.308.307.308a1.069,1.069,0,0,0,.757.314h.436v.435a1.069,1.069,0,0,0,.314.758l.308.307Z" transform="translate(0 -264.765)" fill="#fff"/>
  <path id="Tracé_69" data-name="Tracé 69" d="M303.7,15.969a1.069,1.069,0,0,0-.332-.775l-1.062-1.01.037-1.465a1.069,1.069,0,0,0-1.1-1.1l-1.465.036-1.01-1.062a1.069,1.069,0,0,0-1.55,0l-1.01,1.062-1.465-.037a1.078,1.078,0,0,0-.783.313,1.057,1.057,0,0,0-.109.13L287.023,7.72l.967-.981a1.069,1.069,0,0,0,0-1.5L286.869,4.1l-.011-1.6A1.069,1.069,0,0,0,285.8,1.441l-1.6-.011L283.062.308a1.07,1.07,0,0,0-1.5,0L280.423,1.43l-1.6.011A1.069,1.069,0,0,0,277.763,2.5l-.011,1.6-1.122,1.137a1.069,1.069,0,0,0,0,1.5l1.122,1.137.011,1.6a1.069,1.069,0,0,0,1.062,1.062l1.287.009-2.261,9.38a1.069,1.069,0,1,0,2.079.5l2.05-8.5a1.065,1.065,0,0,0,1.082-.255l1.137-1.122,1.6-.011a1.068,1.068,0,0,0,.893-.494l6.8,4.328-.866.824a1.069,1.069,0,0,0,0,1.55l1.062,1.01-.037,1.465a1.069,1.069,0,0,0,1.1,1.1l.776-.019-3.479,11.118a1.068,1.068,0,0,0-1.38.144l-1.01,1.062-1.465-.037a1.069,1.069,0,0,0-1.1,1.1l.036,1.465c-.045.045-1.037.983-1.084,1.033l-8.218.486-.081-.9a1.07,1.07,0,0,0-.967-.967l-.3-.028,2.3-9.555a1.069,1.069,0,0,0-2.079-.5l-2.226,9.235a1.062,1.062,0,0,0-.543.235l-.645.537-.836.077a1.07,1.07,0,0,0-.967.967l-.077.836-.537.645a1.069,1.069,0,0,0,0,1.367l.537.645,0,.044-1.981,1.725a1.069,1.069,0,1,0,1.4,1.613l1.795-1.563.657.061.645.537a1.069,1.069,0,0,0,1.367,0l.645-.537.836-.077a1.07,1.07,0,0,0,.967-.967l.077-.836.392-.471,8.462-.5.453.431-.037,1.465a1.069,1.069,0,0,0,1.1,1.1l1.465-.037,1.01,1.062a1.069,1.069,0,0,0,1.549,0l1.01-1.062,1.465.037a1.087,1.087,0,0,0,.783-.313,1.069,1.069,0,0,0,.313-.783l-.036-1.465,1.062-1.01a1.069,1.069,0,0,0,0-1.55l-1.062-1.01.037-1.465a1.069,1.069,0,0,0-1.1-1.1l-.776.019,3.479-11.118a1.069,1.069,0,0,0,1.38-.144l1.01-1.062,1.465.037a1.069,1.069,0,0,0,1.1-1.1l-.036-1.465,1.062-1.01a1.07,1.07,0,0,0,.332-.775ZM275.963,38.143a1.07,1.07,0,0,0-.243.585l-.026.281-.281.026a1.07,1.07,0,0,0-.586.243l-.217.18-.217-.18a1.069,1.069,0,0,0-.585-.243l-.281-.026-.026-.281a1.069,1.069,0,0,0-.243-.586l-.18-.217.18-.217a1.069,1.069,0,0,0,.243-.585l.026-.281.281-.026a1.07,1.07,0,0,0,.586-.243l.217-.18.217.18a1.07,1.07,0,0,0,.585.243l.281.026.026.281a1.069,1.069,0,0,0,.243.586l.18.217ZM284.726,8.4l-.977.007a1.07,1.07,0,0,0-.744.308l-.695.686-.7-.686a1.07,1.07,0,0,0-.744-.308l-.977-.007-.007-.977a1.07,1.07,0,0,0-.308-.744l-.686-.695.686-.7a1.07,1.07,0,0,0,.308-.744l.007-.977.977-.007a1.07,1.07,0,0,0,.744-.308l.695-.686.7.686a1.07,1.07,0,0,0,.744.308l.977.007.007.977a1.07,1.07,0,0,0,.308.744l.686.695-.686.7a1.07,1.07,0,0,0-.308.744Zm9.791,28.523-.591.562a1.07,1.07,0,0,0-.332.8l.02.816-.816-.02a1.081,1.081,0,0,0-.8.332l-.562.591-.562-.591a1.07,1.07,0,0,0-.775-.332h-.027l-.816.02.02-.816a1.07,1.07,0,0,0-.332-.8l-.591-.562.591-.562a1.07,1.07,0,0,0,.332-.8l-.02-.816.816.02a1.065,1.065,0,0,0,.8-.332l.562-.591.562.591a1.07,1.07,0,0,0,.775.332h.027l.816-.02-.02.816a1.07,1.07,0,0,0,.332.8Zm5.968-20.4a1.071,1.071,0,0,0-.332.8l.02.816-.816-.02a1.083,1.083,0,0,0-.8.332l-.562.591-.562-.591a1.07,1.07,0,0,0-.775-.332h-.027l-.816.02.02-.816a1.07,1.07,0,0,0-.332-.8l-.591-.562.591-.562a1.07,1.07,0,0,0,.332-.8l-.02-.816.816.02a1.072,1.072,0,0,0,.8-.332l.562-.591.562.591a1.079,1.079,0,0,0,.8.332l.816-.02-.02.816a1.07,1.07,0,0,0,.332.8l.591.562Z" transform="translate(-230.697 0)" fill="#fff"/>
  <path id="Tracé_70" data-name="Tracé 70" d="M110.069,205.063h.855v.855a1.069,1.069,0,0,0,2.139,0v-.855h.855a1.069,1.069,0,1,0,0-2.139h-.855v-.855a1.069,1.069,0,0,0-2.139,0v.855h-.855a1.069,1.069,0,1,0,0,2.139Z" transform="translate(-93.459 -172.342)" fill="#fff"/>
  <path id="Tracé_71" data-name="Tracé 71" d="M221.489,101.21h-1.141v-1.141a1.069,1.069,0,1,0-2.139,0v1.141h-1.141a1.069,1.069,0,1,0,0,2.139h1.141v1.141a1.069,1.069,0,1,0,2.139,0v-1.141h1.141a1.069,1.069,0,1,0,0-2.139Z" transform="translate(-185.203 -84.885)" fill="#fff"/>
  <path id="Tracé_72" data-name="Tracé 72" d="M347.444,351.21H346.3v-1.141a1.069,1.069,0,0,0-2.139,0v1.141h-1.141a1.069,1.069,0,0,0,0,2.139h1.141v1.141a1.069,1.069,0,1,0,2.139,0v-1.141h1.141a1.069,1.069,0,1,0,0-2.139Z" transform="translate(-293.2 -299.24)" fill="#fff"/>
  <path id="Tracé_73" data-name="Tracé 73" d="M180.3,435.916h-.57v-.57a1.069,1.069,0,1,0-2.139,0v.57h-.57a1.069,1.069,0,0,0,0,2.139h.57v.57a1.069,1.069,0,1,0,2.139,0v-.57h.57a1.069,1.069,0,0,0,0-2.139Z" transform="translate(-150.868 -372.358)" fill="#fff"/>
  <path id="Tracé_74" data-name="Tracé 74" d="M57.024,58.054h.57v.57a1.069,1.069,0,0,0,2.139,0v-.57h.57a1.069,1.069,0,1,0,0-2.139h-.57v-.57a1.069,1.069,0,0,0-2.139,0v.57h-.57a1.069,1.069,0,0,0,0,2.139Z" transform="translate(-47.977 -46.537)" fill="#fff"/>
</svg>
