<svg id="_x30_1._Facebook" xmlns="http://www.w3.org/2000/svg" width="14.181" height="26.29" viewBox="0 0 14.181 26.29">
  <path id="Icon_11_" d="M32.348,24.94H29.091c-.526,0-.691-.2-.691-.691V20.267c0-.526.2-.691.691-.691h3.257v-2.9a7.309,7.309,0,0,1,.888-3.718,5.46,5.46,0,0,1,2.928-2.435A7.321,7.321,0,0,1,38.7,10.1h3.225c.461,0,.658.2.658.658v3.751c0,.461-.2.658-.658.658-.888,0-1.777,0-2.665.033a1.188,1.188,0,0,0-1.349,1.349c-.033.987,0,1.941,0,2.961h3.817c.526,0,.724.2.724.724v3.981c0,.526-.165.691-.724.691H37.909V35.633c0,.559-.165.757-.757.757H33.039c-.494,0-.691-.2-.691-.691V24.94Z" transform="translate(-28.4 -10.1)" fill="#fff"/>
</svg>
