<svg id="footage" xmlns="http://www.w3.org/2000/svg" width="32.53" height="27.354" viewBox="0 0 32.53 27.354">
  <path id="Tracé_44" data-name="Tracé 44" d="M52.382,70.7v-.17a3.576,3.576,0,0,0-2.233-3.318A3.354,3.354,0,0,0,46.806,64H28.385a3.356,3.356,0,0,0-3.348,3.257,3.576,3.576,0,0,0-2.117,3.269V70.6a3.732,3.732,0,0,0-1.59,3.05V87.615a3.743,3.743,0,0,0,3.739,3.739H50.121a3.743,3.743,0,0,0,3.739-3.739V73.654A3.722,3.722,0,0,0,52.382,70.7Zm-24-5.217H46.806a1.88,1.88,0,0,1,1.828,1.46H26.557a1.88,1.88,0,0,1,1.828-1.46Zm-3.735,4.048a2.108,2.108,0,0,1,1.857-1.109H48.795a2.091,2.091,0,0,1,2.036,1.569,3.73,3.73,0,0,0-.709-.072H25.07a3.705,3.705,0,0,0-.594.06,2.081,2.081,0,0,1,.175-.448ZM52.382,87.615a2.263,2.263,0,0,1-2.261,2.261H25.07a2.263,2.263,0,0,1-2.261-2.261V73.654a2.263,2.263,0,0,1,2.261-2.261H50.121a2.263,2.263,0,0,1,2.261,2.261Z" transform="translate(-21.331 -64)" fill="#9a432a"/>
  <path id="Tracé_45" data-name="Tracé 45" d="M195.723,220.712l-6.654-3.842a2.218,2.218,0,0,0-3.327,1.921v7.683a2.213,2.213,0,0,0,3.327,1.921l6.654-3.842a2.218,2.218,0,0,0,0-3.841Zm-.739,2.561-6.654,3.842a.739.739,0,0,1-1.109-.64v-7.683a.726.726,0,0,1,.37-.64.762.762,0,0,1,.373-.1.723.723,0,0,1,.366.1l6.654,3.842a.739.739,0,0,1,0,1.28Z" transform="translate(-174.347 -205.999)" fill="#9a432a"/>
</svg>
