<svg id="instagram_1_" data-name="instagram (1)" xmlns="http://www.w3.org/2000/svg" width="25.269" height="25.274" viewBox="0 0 25.269 25.274">
  <path id="Tracé_22" data-name="Tracé 22" d="M25.654,7.431a9.235,9.235,0,0,0-.587-3.066,6.474,6.474,0,0,0-3.7-3.7A9.259,9.259,0,0,0,18.3.079C16.949.015,16.52,0,13.089,0S9.228.015,7.88.074A9.238,9.238,0,0,0,4.814.662,6.167,6.167,0,0,0,2.572,2.123,6.223,6.223,0,0,0,1.116,4.36,9.26,9.26,0,0,0,.528,7.426C.464,8.778.449,9.208.449,12.639S.464,16.5.523,17.848a9.234,9.234,0,0,0,.588,3.066,6.473,6.473,0,0,0,3.7,3.7,9.26,9.26,0,0,0,3.066.587c1.348.059,1.777.074,5.209.074s3.861-.015,5.209-.074a9.233,9.233,0,0,0,3.066-.587,6.465,6.465,0,0,0,3.7-3.7,9.266,9.266,0,0,0,.587-3.066c.059-1.348.074-1.777.074-5.209S25.713,8.778,25.654,7.431ZM23.378,17.749a6.927,6.927,0,0,1-.435,2.345,4.192,4.192,0,0,1-2.4,2.4,6.952,6.952,0,0,1-2.345.434c-1.333.059-1.733.074-5.105.074s-3.777-.015-5.105-.074a6.924,6.924,0,0,1-2.345-.434,3.889,3.889,0,0,1-1.451-.943A3.929,3.929,0,0,1,3.249,20.1a6.953,6.953,0,0,1-.434-2.345c-.059-1.333-.074-1.733-.074-5.105s.015-3.777.074-5.105A6.924,6.924,0,0,1,3.249,5.2,3.841,3.841,0,0,1,4.2,3.747,3.923,3.923,0,0,1,5.648,2.8,6.957,6.957,0,0,1,7.993,2.37C9.326,2.311,9.726,2.3,13.1,2.3s3.777.015,5.105.074a6.927,6.927,0,0,1,2.345.435A3.886,3.886,0,0,1,22,3.747,3.928,3.928,0,0,1,22.943,5.2a6.955,6.955,0,0,1,.435,2.345c.059,1.333.074,1.733.074,5.105S23.437,16.416,23.378,17.749Zm0,0" transform="translate(-0.449 0)" fill="#fff"/>
  <path id="Tracé_23" data-name="Tracé 23" d="M131.442,124.5a6.492,6.492,0,1,0,6.492,6.492A6.494,6.494,0,0,0,131.442,124.5Zm0,10.7a4.211,4.211,0,1,1,4.212-4.211A4.212,4.212,0,0,1,131.442,135.2Zm0,0" transform="translate(-118.802 -118.353)" fill="#fff"/>
  <path id="Tracé_24" data-name="Tracé 24" d="M365.481,90.117a1.516,1.516,0,1,1-1.516-1.516A1.516,1.516,0,0,1,365.481,90.117Zm0,0" transform="translate(-344.576 -84.227)" fill="#fff"/>
</svg>
