<svg id="user" xmlns="http://www.w3.org/2000/svg" width="15.671" height="18.784" viewBox="0 0 15.671 18.784">
  <path id="Tracé_60" data-name="Tracé 60" d="M91.555,9.048a4.377,4.377,0,0,0,3.2-1.325,4.377,4.377,0,0,0,1.325-3.2,4.378,4.378,0,0,0-1.325-3.2,4.523,4.523,0,0,0-6.4,0,4.378,4.378,0,0,0-1.325,3.2,4.377,4.377,0,0,0,1.326,3.2A4.378,4.378,0,0,0,91.555,9.048Zm0,0" transform="translate(-83.838)" fill="#fff"/>
  <path id="Tracé_61" data-name="Tracé 61" d="M15.633,252.687a11.175,11.175,0,0,0-.152-1.187,9.351,9.351,0,0,0-.292-1.193,5.9,5.9,0,0,0-.491-1.113,4.2,4.2,0,0,0-.74-.964,3.261,3.261,0,0,0-1.063-.668,3.672,3.672,0,0,0-1.357-.245,1.377,1.377,0,0,0-.735.312c-.22.144-.478.31-.766.494a4.389,4.389,0,0,1-.991.437,3.849,3.849,0,0,1-2.424,0,4.378,4.378,0,0,1-.99-.437c-.285-.182-.543-.348-.767-.494a1.375,1.375,0,0,0-.735-.312,3.668,3.668,0,0,0-1.356.246,3.259,3.259,0,0,0-1.063.668,4.2,4.2,0,0,0-.739.964,5.906,5.906,0,0,0-.491,1.113A9.374,9.374,0,0,0,.19,251.5a11.135,11.135,0,0,0-.152,1.187C.013,253.047,0,253.42,0,253.8a3.119,3.119,0,0,0,.926,2.36,3.335,3.335,0,0,0,2.387.871h9.044a3.334,3.334,0,0,0,2.387-.871,3.118,3.118,0,0,0,.926-2.36C15.671,253.418,15.658,253.045,15.633,252.687Zm0,0" transform="translate(0 -238.243)" fill="#fff"/>
</svg>
