<svg xmlns="http://www.w3.org/2000/svg" xmlns:xlink="http://www.w3.org/1999/xlink" width="177.324" height="69.427" viewBox="0 0 177.324 69.427">
  <defs>
    <clipPath id="clip-path">
      <rect id="Rectangle_27" data-name="Rectangle 27" width="177.324" height="69.427" fill="#fff"/>
    </clipPath>
  </defs>
  <g id="Groupe_21" data-name="Groupe 21" transform="translate(-855.742 -253.85)">
    <g id="Groupe_13" data-name="Groupe 13" transform="translate(855.742 253.85)">
      <g id="Groupe_12" data-name="Groupe 12" transform="translate(0 0)" clip-path="url(#clip-path)">
        <path id="Tracé_25" data-name="Tracé 25" d="M9.419,14.217c3.056.736,3.554,2.008,3.554,4.282V41.185c0,2.341,1.554,15.693-5.465,16.139a3.789,3.789,0,0,1-1.976-.446s-.543-.344-.191-.533l.1-.085.006,0,.347-.3-.02,0A2.981,2.981,0,0,0,6.317,52.4a3.417,3.417,0,0,0-4.462-1.358,3.037,3.037,0,0,0-1.443,4.2A3.172,3.172,0,0,0,1.49,56.381l-.024,0a10.982,10.982,0,0,0,1.171.707,13.062,13.062,0,0,0,1.9.728,11.886,11.886,0,0,0,2.685.424l0,.006c.032,0,.059,0,.093,0,.049,0,.1,0,.148,0l0-.01c8.983-.14,11.7-6.061,11.7-18.591V11.475L9.419,13.416Z" transform="translate(0.048 11.18)" fill="#fff"/>
        <path id="Tracé_26" data-name="Tracé 26" d="M9.608,12.063A3.539,3.539,0,0,0,13.232,8.65,3.55,3.55,0,0,0,9.608,5.169,3.55,3.55,0,0,0,5.983,8.65a3.539,3.539,0,0,0,3.625,3.413" transform="translate(5.829 5.036)" fill="#fff"/>
        <path id="Tracé_27" data-name="Tracé 27" d="M47.759,11.475c-10.8,0-16.416,7.228-16.416,16.058,0,8.768,5.613,16.06,16.416,16.06,10.872,0,16.343-7.293,16.343-16.06,0-8.831-5.471-16.058-16.343-16.058m0,31.25c-5.473,0-9.168-3.08-9.168-15.192s3.7-15.19,9.168-15.19c5.4,0,9.024,3.08,9.024,15.19s-3.625,15.192-9.024,15.192" transform="translate(30.535 11.18)" fill="#fff"/>
        <path id="Tracé_28" data-name="Tracé 28" d="M67.271,11.475c-10.8,0-16.416,7.228-16.416,16.058,0,8.768,5.613,16.06,16.416,16.06,10.872,0,16.343-7.293,16.343-16.06,0-8.831-5.471-16.058-16.343-16.058m0,31.25c-5.473,0-9.168-3.08-9.168-15.192s3.7-15.19,9.168-15.19c5.4,0,9.024,3.08,9.024,15.19S72.67,42.725,67.271,42.725" transform="translate(49.544 11.18)" fill="#fff"/>
        <path id="Tracé_29" data-name="Tracé 29" d="M108.307,38.648a3.27,3.27,0,0,0-4.547-.6,2.993,2.993,0,0,0-.711,4.349,3.278,3.278,0,0,0,2.2,1.2c.426.067.91,1.528-1.86,2.8-4.7,2.083-8.627-1.177-8.627-8.6V24.862c0-7.962-2.132-13.383-9.879-13.383a15.033,15.033,0,0,0-6.537,1.273C74.512,14.691,73.3,16.7,72.807,17.7a2.958,2.958,0,0,0,.357,3.279,3.273,3.273,0,0,0,4.549.6,2.994,2.994,0,0,0,.709-4.349,3.286,3.286,0,0,0-2.2-1.2c-.428-.067,0-1.339,2.77-2.61,5.686-2.476,9.38,1.406,9.38,8.3V25.6C76.22,28.542,70.177,30.014,70.177,36.705c0,6.894,8.1,6.894,8.1,6.894,4.975,0,9.1-2.411,10.09-5.621l.247-.067c.94,6.146,4.564,10.136,9.632,10.13a12.892,12.892,0,0,0,6.9-1.463c3.111-1.84,3.435-3.686,3.654-4.677a3.747,3.747,0,0,0-.5-3.254M88.369,36.439a6.626,6.626,0,0,1-6.252,4.148A5.246,5.246,0,0,1,76.5,35.3c0-4.014,3.625-6.957,11.867-8.831Z" transform="translate(68.368 11.174)" fill="#fff"/>
        <path id="Tracé_30" data-name="Tracé 30" d="M14.188,6.434l-2.075-.559A5.518,5.518,0,0,1,8.186,2.184L7.6.229a.405.405,0,0,0-.517-.2.4.4,0,0,0-.213.2L6.277,2.184A5.521,5.521,0,0,1,2.353,5.878L.276,6.436a.355.355,0,0,0-.261.442.367.367,0,0,0,.261.245l2.077.559a5.519,5.519,0,0,1,3.921,3.694l.594,1.954a.386.386,0,0,0,.47.247A.373.373,0,0,0,7.6,13.33l.594-1.954a5.516,5.516,0,0,1,3.921-3.694l2.077-.559a.355.355,0,0,0,.261-.442.367.367,0,0,0-.261-.245Z" transform="translate(0.001 0)" fill="#fff"/>
        <path id="Tracé_31" data-name="Tracé 31" d="M89.777,39.656a3.481,3.481,0,0,1,1.674.436L93.082,6.714h-.008a3.268,3.268,0,0,0-3.3-3.3,3.3,3.3,0,0,0-3.3,3.3h-.008l1.564,33.427a3.446,3.446,0,0,1,1.741-.486" transform="translate(84.243 3.329)" fill="#fff"/>
        <path id="Tracé_32" data-name="Tracé 32" d="M12.147,10.334A8.625,8.625,0,0,1,13.6,5.947a4.051,4.051,0,0,1,3.123-1.414V3.442A37.092,37.092,0,0,0,7.1,7.134Z" transform="translate(6.914 3.354)" fill="#fff"/>
        <path id="Tracé_33" data-name="Tracé 33" d="M42.6,45.17V30.65c0-8.031-3.98-10.773-9.808-10.773-4.62,0-9.948,3.747-11.014,7.561V6.615c-.006-.628-.215-4.324-4.462-3.692h0L11.974,4.017V5.109c2.053-.038,3.554,1.05,3.554,3.392V45.17c0,3.413-.14,4.616-2.841,5.354v.869H24.7v-.869c-2.559-.6-2.914-1.674-2.914-5.354V28.642c1.137-2.274,3.767-5.352,7.32-5.352,4.975,0,7.39,2.809,7.39,7.628V45.17c0,3.413-.142,4.683-2.841,5.421v.8H45.518v-.8c-2.488-.6-2.914-1.741-2.914-5.421" transform="translate(11.665 2.778)" fill="#fff"/>
      </g>
    </g>
  </g>
</svg>
