<svg xmlns="http://www.w3.org/2000/svg" xmlns:xlink="http://www.w3.org/1999/xlink" width="326.134" height="127.69" viewBox="0 0 326.134 127.69">
  <defs>
    <clipPath id="clip-path">
      <rect id="Rectangle_27" data-name="Rectangle 27" width="326.134" height="127.69" fill="#fff"/>
    </clipPath>
  </defs>
  <g id="Groupe_21" data-name="Groupe 21" transform="translate(-855.742 -253.85)">
    <g id="Groupe_3" data-name="Groupe 3" transform="translate(317.952 -44.879)">
      <path id="Tracé_56" data-name="Tracé 56" d="M3.2-2.45V-7.308a.189.189,0,0,1,.214-.214h.749q.2,0,.2.214v4.954Q4.366.128,2.054.128A3.321,3.321,0,0,1,.385-.257q-.2-.128-.139-.3L.46-1.134q.086-.214.257-.118a2.606,2.606,0,0,0,1.209.31Q3.2-.942,3.2-2.45ZM9.181-7.64a3.027,3.027,0,0,1,2.434,1,4.312,4.312,0,0,1,.851,2.878,4.308,4.308,0,0,1-.851,2.884,3.034,3.034,0,0,1-2.434.99,3.022,3.022,0,0,1-2.424-.99,4.308,4.308,0,0,1-.851-2.884,4.312,4.312,0,0,1,.851-2.878A3.014,3.014,0,0,1,9.181-7.64Zm0,6.709q2.086,0,2.086-2.835T9.181-6.6Q7.1-6.6,7.1-3.766T9.181-.931Zm7.683-1.84V-.214A.189.189,0,0,1,16.649,0H15.9a.189.189,0,0,1-.214-.214V-2.771L13.118-7.265a.165.165,0,0,1-.011-.171.163.163,0,0,1,.161-.086h.8a.323.323,0,0,1,.289.193l1.359,2.493.556,1.091.556-1.091L18.2-7.329a.276.276,0,0,1,.278-.193h.8a.152.152,0,0,1,.155.086.193.193,0,0,1-.005.171Zm8.432,1.359a1.4,1.4,0,0,1-1.049-.428,1.471,1.471,0,0,1-.417-1.07,1.443,1.443,0,0,1,.423-1.065A1.43,1.43,0,0,1,25.306-4.4a1.43,1.43,0,0,1,1.054.423,1.443,1.443,0,0,1,.423,1.065,1.461,1.461,0,0,1-.423,1.07A1.434,1.434,0,0,1,25.295-1.412Zm11.075,1.2V-3.306H32.913V-.214A.189.189,0,0,1,32.7,0h-.738q-.225,0-.225-.214V-7.308q0-.214.225-.214H32.7a.189.189,0,0,1,.214.214v2.932h3.456V-7.308q0-.214.225-.214h.738a.189.189,0,0,1,.214.214V-.214A.189.189,0,0,1,37.332,0h-.738Q36.369,0,36.369-.214ZM42.415-7.64a3.027,3.027,0,0,1,2.434,1A4.312,4.312,0,0,1,45.7-3.766a4.308,4.308,0,0,1-.851,2.884,3.034,3.034,0,0,1-2.434.99,3.022,3.022,0,0,1-2.424-.99,4.308,4.308,0,0,1-.851-2.884,4.312,4.312,0,0,1,.851-2.878A3.014,3.014,0,0,1,42.415-7.64Zm0,6.709q2.086,0,2.086-2.835T42.415-6.6q-2.076,0-2.076,2.835T42.415-.931Zm6.056-2.354h1.22a2.432,2.432,0,0,0,1.5-.364,1.48,1.48,0,0,0,.46-1.231,1.494,1.494,0,0,0-.46-1.241,2.432,2.432,0,0,0-1.5-.364h-1.22ZM48.246,0h-.728q-.225,0-.225-.214V-7.308a.189.189,0,0,1,.214-.214h2.183a3.771,3.771,0,0,1,2.391.621,2.457,2.457,0,0,1,.765,2.022,2.44,2.44,0,0,1-.765,2.017,3.8,3.8,0,0,1-2.391.615h-1.22V-.214Q48.471,0,48.246,0ZM58.689-3.338H55.651v2.3h3.2q.214,0,.214.2v.61q0,.225-.214.225H54.709q-.225,0-.225-.214V-7.308a.189.189,0,0,1,.214-.214h4.109q.225,0,.225.214v.61q0,.214-.225.214H55.651v2.14h3.039q.2,0,.2.225v.556Q58.893-3.338,58.689-3.338Zm6.441,1.926a1.4,1.4,0,0,1-1.049-.428,1.471,1.471,0,0,1-.417-1.07,1.443,1.443,0,0,1,.423-1.065A1.43,1.43,0,0,1,65.142-4.4a1.43,1.43,0,0,1,1.054.423,1.443,1.443,0,0,1,.423,1.065A1.461,1.461,0,0,1,66.2-1.84,1.434,1.434,0,0,1,65.131-1.412ZM74.525-7.64a3.027,3.027,0,0,1,2.434,1,4.312,4.312,0,0,1,.851,2.878A4.308,4.308,0,0,1,76.96-.883a3.034,3.034,0,0,1-2.434.99A3.022,3.022,0,0,1,72.1-.883a4.308,4.308,0,0,1-.851-2.884A4.312,4.312,0,0,1,72.1-6.645,3.014,3.014,0,0,1,74.525-7.64Zm0,6.709q2.086,0,2.087-2.835T74.525-6.6q-2.076,0-2.076,2.835T74.525-.931Zm6.056-2.354H81.8a2.432,2.432,0,0,0,1.5-.364,1.48,1.48,0,0,0,.46-1.231A1.494,1.494,0,0,0,83.3-6.12a2.432,2.432,0,0,0-1.5-.364h-1.22ZM80.357,0h-.728Q79.4,0,79.4-.214V-7.308a.189.189,0,0,1,.214-.214H81.8a3.771,3.771,0,0,1,2.391.621,2.457,2.457,0,0,1,.765,2.022,2.44,2.44,0,0,1-.765,2.017,3.8,3.8,0,0,1-2.391.615h-1.22V-.214Q80.582,0,80.357,0Zm5.521-6.666v-.642a.189.189,0,0,1,.214-.214h4.9q.225,0,.225.214v.642q0,.214-.225.214H89.142V-.214q0,.214-.225.214h-.738a.189.189,0,0,1-.214-.214V-6.452H86.1Q85.878-6.452,85.878-6.666ZM92.641-.214V-7.308q0-.214.2-.214h.749q.225,0,.225.214V-.214q0,.214-.225.214h-.749Q92.641,0,92.641-.214Zm6.837-1.894a.235.235,0,0,1-.214.128.235.235,0,0,1-.214-.128l-2.1-3.413V-.214A.189.189,0,0,1,96.739,0h-.717Q95.8,0,95.8-.214V-7.308q0-.214.225-.214h.717A.288.288,0,0,1,97-7.394l2.268,3.681,2.268-3.681a.288.288,0,0,1,.257-.128h.728a.189.189,0,0,1,.214.214V-.214a.189.189,0,0,1-.214.214h-.728a.189.189,0,0,1-.214-.214V-5.521Zm5.243,1.894V-7.308q0-.214.2-.214h.749q.225,0,.225.214V-.214q0,.214-.225.214h-.749Q104.721,0,104.721-.214Zm7.929-1.755a1.752,1.752,0,0,1-.76,1.541A3.583,3.583,0,0,1,109.825.1a5.134,5.134,0,0,1-2.2-.385q-.2-.1-.15-.246l.214-.578q.075-.214.257-.128a4.728,4.728,0,0,0,1.776.31A2.563,2.563,0,0,0,111-1.2a.862.862,0,0,0,.471-.786.923.923,0,0,0-.118-.471,1.151,1.151,0,0,0-.4-.38,3.947,3.947,0,0,0-.492-.267q-.209-.091-.669-.273-.428-.171-.669-.273a4.443,4.443,0,0,1-.572-.3,1.927,1.927,0,0,1-.5-.417,2.08,2.08,0,0,1-.3-.54,1.988,1.988,0,0,1-.128-.733,1.762,1.762,0,0,1,.658-1.477,3.2,3.2,0,0,1,1.985-.514A4.828,4.828,0,0,1,112.2-7.3q.193.086.139.257l-.2.556a.191.191,0,0,1-.278.118,4.4,4.4,0,0,0-1.5-.246,2.259,2.259,0,0,0-1.188.241.822.822,0,0,0-.374.744.824.824,0,0,0,.2.556,1.434,1.434,0,0,0,.455.358q.251.123.722.316a.332.332,0,0,1,.064.021l.059.027q.037.016.07.027a7.368,7.368,0,0,1,1.519.781A1.889,1.889,0,0,1,112.65-1.969Zm5.168-.139a.235.235,0,0,1-.214.128.235.235,0,0,1-.214-.128l-2.1-3.413V-.214a.189.189,0,0,1-.214.214h-.717q-.225,0-.225-.214V-7.308q0-.214.225-.214h.717a.288.288,0,0,1,.257.128L117.6-3.713l2.268-3.681a.288.288,0,0,1,.257-.128h.728a.189.189,0,0,1,.214.214V-.214a.189.189,0,0,1-.214.214h-.728a.189.189,0,0,1-.214-.214V-5.521Zm9.673.7a1.4,1.4,0,0,1-1.049-.428,1.471,1.471,0,0,1-.417-1.07,1.443,1.443,0,0,1,.423-1.065A1.43,1.43,0,0,1,127.5-4.4a1.43,1.43,0,0,1,1.054.423,1.443,1.443,0,0,1,.423,1.065,1.461,1.461,0,0,1-.423,1.07A1.434,1.434,0,0,1,127.49-1.412Zm9.395-6.227a3.027,3.027,0,0,1,2.434,1,4.312,4.312,0,0,1,.851,2.878,4.308,4.308,0,0,1-.851,2.884,3.034,3.034,0,0,1-2.434.99,3.022,3.022,0,0,1-2.424-.99,4.308,4.308,0,0,1-.851-2.884,4.312,4.312,0,0,1,.851-2.878A3.014,3.014,0,0,1,136.885-7.64Zm0,6.709q2.087,0,2.087-2.835T136.885-6.6q-2.076,0-2.076,2.835T136.885-.931Zm6.056-2.354h1.22a2.432,2.432,0,0,0,1.5-.364,1.48,1.48,0,0,0,.46-1.231,1.494,1.494,0,0,0-.46-1.241,2.432,2.432,0,0,0-1.5-.364h-1.22ZM142.717,0h-.728q-.225,0-.225-.214V-7.308a.189.189,0,0,1,.214-.214h2.183a3.771,3.771,0,0,1,2.391.621,2.457,2.457,0,0,1,.765,2.022,2.44,2.44,0,0,1-.765,2.017,3.8,3.8,0,0,1-2.391.615h-1.22V-.214Q142.941,0,142.717,0Zm7.415-3.285h1.22a2.432,2.432,0,0,0,1.5-.364,1.48,1.48,0,0,0,.46-1.231,1.494,1.494,0,0,0-.46-1.241,2.432,2.432,0,0,0-1.5-.364h-1.22ZM149.907,0h-.728q-.225,0-.225-.214V-7.308a.189.189,0,0,1,.214-.214h2.183a3.771,3.771,0,0,1,2.391.621,2.457,2.457,0,0,1,.765,2.022,2.44,2.44,0,0,1-.765,2.017,3.8,3.8,0,0,1-2.391.615h-1.22V-.214Q150.132,0,149.907,0ZM159.1-7.64a3.027,3.027,0,0,1,2.434,1,4.312,4.312,0,0,1,.851,2.878,4.308,4.308,0,0,1-.851,2.884,3.034,3.034,0,0,1-2.434.99,3.022,3.022,0,0,1-2.424-.99,4.308,4.308,0,0,1-.851-2.884,4.312,4.312,0,0,1,.851-2.878A3.014,3.014,0,0,1,159.1-7.64Zm0,6.709q2.087,0,2.087-2.835T159.1-6.6q-2.076,0-2.076,2.835T159.1-.931Zm6.056-2.707h1.284a2.524,2.524,0,0,0,1.493-.337,1.263,1.263,0,0,0,.444-1.075,1.28,1.28,0,0,0-.449-1.1,2.512,2.512,0,0,0-1.466-.332h-1.305ZM164.2-7.522h2.279a3.7,3.7,0,0,1,2.317.6,2.246,2.246,0,0,1,.754,1.873,2.116,2.116,0,0,1-2.022,2.29l2.022,2.482a.168.168,0,0,1,.037.182.158.158,0,0,1-.166.1h-.813a.407.407,0,0,1-.321-.171l-1.969-2.44h-1.166v2.4q0,.214-.225.214H164.2q-.225,0-.225-.214V-7.308Q163.977-7.522,164.2-7.522Zm6.3.856v-.642a.189.189,0,0,1,.214-.214h4.9q.225,0,.225.214v.642q0,.214-.225.214h-1.851V-.214q0,.214-.225.214H172.8a.189.189,0,0,1-.214-.214V-6.452h-1.862Q170.5-6.452,170.5-6.666ZM182.189-.6a2.91,2.91,0,0,1-2.161.728A2.93,2.93,0,0,1,177.861-.6a2.836,2.836,0,0,1-.722-2.086V-7.308a.189.189,0,0,1,.214-.214h.738q.225,0,.225.214v4.526q0,1.84,1.712,1.84t1.723-1.84V-7.308a.189.189,0,0,1,.214-.214h.749q.2,0,.2.214v4.622A2.824,2.824,0,0,1,182.189-.6Zm8.432-6.72v7.1a.189.189,0,0,1-.214.214h-.749a.331.331,0,0,1-.289-.16l-3.435-5.4v5.35q0,.214-.2.214h-.717q-.225,0-.225-.214V-7.308q0-.214.225-.214h.738a.331.331,0,0,1,.3.15l3.424,5.414v-5.35a.189.189,0,0,1,.214-.214h.717Q190.62-7.522,190.62-7.319Zm2,7.1V-7.308q0-.214.2-.214h.749q.225,0,.225.214V-.214q0,.214-.225.214h-.749Q192.621,0,192.621-.214Zm2.589-6.452v-.642a.189.189,0,0,1,.214-.214h4.9q.225,0,.225.214v.642q0,.214-.225.214h-1.851V-.214q0,.214-.225.214h-.738a.189.189,0,0,1-.214-.214V-6.452h-1.862Q195.211-6.452,195.211-6.666Zm9.876,3.895V-.214a.189.189,0,0,1-.214.214h-.749a.189.189,0,0,1-.214-.214V-2.771l-2.568-4.494a.165.165,0,0,1-.011-.171.163.163,0,0,1,.16-.086h.8a.323.323,0,0,1,.289.193l1.359,2.493.556,1.091.556-1.091,1.37-2.493a.276.276,0,0,1,.278-.193h.8a.152.152,0,0,1,.155.086.193.193,0,0,1-.005.171Zm8.432,1.359a1.4,1.4,0,0,1-1.049-.428,1.471,1.471,0,0,1-.417-1.07,1.443,1.443,0,0,1,.423-1.065,1.43,1.43,0,0,1,1.054-.423,1.43,1.43,0,0,1,1.054.423,1.443,1.443,0,0,1,.423,1.065,1.461,1.461,0,0,1-.423,1.07A1.434,1.434,0,0,1,213.518-1.412Zm7.95-1.423h2.45l-1.209-3.52h-.021Zm.76-4.687h.942a.249.249,0,0,1,.177.048.463.463,0,0,1,.091.166l2.6,7.073a.161.161,0,0,1-.005.166.175.175,0,0,1-.155.07h-.8a.275.275,0,0,1-.257-.193l-.589-1.616h-3.06l-.6,1.616a.24.24,0,0,1-.235.193h-.813a.175.175,0,0,1-.155-.07.178.178,0,0,1-.016-.166l2.6-7.073a.414.414,0,0,1,.1-.166A.271.271,0,0,1,222.228-7.522ZM229.526,0h-1.947q-.225,0-.225-.214V-7.308a.189.189,0,0,1,.214-.214H229.5a4.057,4.057,0,0,1,2.809.851,3.641,3.641,0,0,1,.936,2.809,4,4,0,0,1-.926,2.98A3.919,3.919,0,0,1,229.526,0Zm-.043-6.452h-.952V-1.07h.963a2.706,2.706,0,0,0,1.931-.6,3,3,0,0,0,.626-2.193,2.638,2.638,0,0,0-.631-2.022A2.829,2.829,0,0,0,229.483-6.452ZM237.818,0h-.952a.282.282,0,0,1-.278-.225l-2.461-7.062q-.075-.235.171-.235h.8a.254.254,0,0,1,.257.2l1.466,4.333.514,1.776h.011L237.861-3l1.477-4.323a.248.248,0,0,1,.246-.2h.813q.235,0,.16.235l-2.45,7.062A.287.287,0,0,1,237.818,0Zm8.335-3.338h-3.039v2.3h3.2q.214,0,.214.2v.61q0,.225-.214.225h-4.141q-.225,0-.225-.214V-7.308a.189.189,0,0,1,.214-.214h4.109q.225,0,.225.214v.61q0,.214-.225.214h-3.156v2.14h3.039q.2,0,.2.225v.556Q246.357-3.338,246.154-3.338Zm7.768-3.98v7.1a.189.189,0,0,1-.214.214h-.749a.331.331,0,0,1-.289-.16l-3.435-5.4v5.35q0,.214-.2.214h-.717q-.225,0-.225-.214V-7.308q0-.214.225-.214h.738a.331.331,0,0,1,.3.15l3.424,5.414v-5.35a.189.189,0,0,1,.214-.214h.717Q253.922-7.522,253.922-7.319Zm1.359.653v-.642a.189.189,0,0,1,.214-.214h4.9q.225,0,.225.214v.642q0,.214-.225.214h-1.851V-.214q0,.214-.225.214h-.738a.189.189,0,0,1-.214-.214V-6.452h-1.862Q255.281-6.452,255.281-6.666ZM266.965-.6A2.91,2.91,0,0,1,264.8.128,2.93,2.93,0,0,1,262.637-.6a2.836,2.836,0,0,1-.722-2.086V-7.308a.189.189,0,0,1,.214-.214h.738q.225,0,.225.214v4.526q0,1.84,1.712,1.84t1.723-1.84V-7.308a.189.189,0,0,1,.214-.214h.749q.2,0,.2.214v4.622A2.824,2.824,0,0,1,266.965-.6Zm3.777-3.039h1.284a2.524,2.524,0,0,0,1.493-.337,1.263,1.263,0,0,0,.444-1.075,1.28,1.28,0,0,0-.449-1.1,2.512,2.512,0,0,0-1.466-.332h-1.305Zm-.952-3.884h2.279a3.7,3.7,0,0,1,2.317.6,2.246,2.246,0,0,1,.754,1.873,2.116,2.116,0,0,1-2.022,2.29L275.14-.278a.168.168,0,0,1,.037.182.158.158,0,0,1-.166.1H274.2a.407.407,0,0,1-.321-.171l-1.969-2.44h-1.166v2.4q0,.214-.225.214h-.728q-.225,0-.225-.214V-7.308Q269.565-7.522,269.79-7.522Zm11.171,4.184h-3.039v2.3h3.2q.214,0,.214.2v.61q0,.225-.214.225H276.98q-.225,0-.225-.214V-7.308a.189.189,0,0,1,.214-.214h4.109q.225,0,.225.214v.61q0,.214-.225.214h-3.156v2.14h3.039q.2,0,.2.225v.556Q281.164-3.338,280.961-3.338Z" transform="translate(581.526 423.248)" fill="#fff"/>
    </g>
    <g id="Groupe_13" data-name="Groupe 13" transform="translate(855.742 253.851)">
      <g id="Groupe_12" data-name="Groupe 12" transform="translate(0 0)" clip-path="url(#clip-path)">
        <path id="Tracé_25" data-name="Tracé 25" d="M17.282,16.518c5.621,1.354,6.536,3.693,6.536,7.876V66.118c0,4.306,2.858,28.863-10.051,29.683a6.969,6.969,0,0,1-3.635-.821s-1-.632-.352-.98l.178-.156.011-.007.639-.559-.036.007a5.482,5.482,0,0,0,1.006-6.536,6.284,6.284,0,0,0-8.206-2.5A5.586,5.586,0,0,0,.718,91.974,5.834,5.834,0,0,0,2.7,94.065l-.044,0a20.2,20.2,0,0,0,2.153,1.3A24.024,24.024,0,0,0,8.3,96.709a21.86,21.86,0,0,0,4.938.781l0,.011c.058,0,.109-.007.171-.007.091,0,.182.007.272,0l0-.018c16.521-.258,21.51-11.147,21.51-34.193V11.475l-17.9,3.569Z" transform="translate(0.128 30.192)" fill="#fff"/>
        <path id="Tracé_26" data-name="Tracé 26" d="M12.649,17.848a6.509,6.509,0,0,0,6.666-6.278,6.53,6.53,0,0,0-6.666-6.4,6.53,6.53,0,0,0-6.666,6.4,6.509,6.509,0,0,0,6.666,6.278" transform="translate(15.741 13.601)" fill="#fff"/>
        <path id="Tracé_27" data-name="Tracé 27" d="M61.535,11.475c-19.869,0-30.192,13.293-30.192,29.534,0,16.125,10.323,29.538,30.192,29.538,20,0,30.057-13.413,30.057-29.538,0-16.241-10.061-29.534-30.057-29.534m0,57.475c-10.065,0-16.862-5.664-16.862-27.94s6.8-27.937,16.862-27.937c9.931,0,16.6,5.664,16.6,27.937s-6.666,27.94-16.6,27.94" transform="translate(82.463 30.192)" fill="#fff"/>
        <path id="Tracé_28" data-name="Tracé 28" d="M81.047,11.475c-19.869,0-30.192,13.293-30.192,29.534,0,16.125,10.323,29.538,30.192,29.538,20,0,30.057-13.413,30.057-29.538,0-16.241-10.061-29.534-30.057-29.534m0,57.475c-10.065,0-16.862-5.664-16.862-27.94s6.8-27.937,16.862-27.937c9.931,0,16.6,5.664,16.6,27.937s-6.666,27.94-16.6,27.94" transform="translate(133.798 30.192)" fill="#fff"/>
        <path id="Tracé_29" data-name="Tracé 29" d="M140.306,61.456a6.015,6.015,0,0,0-8.362-1.107,5.505,5.505,0,0,0-1.307,8,6.028,6.028,0,0,0,4.052,2.215c.784.123,1.674,2.81-3.42,5.145C122.619,79.538,115.4,73.543,115.4,59.9V36.1c0-14.644-3.921-24.614-18.169-24.614a27.648,27.648,0,0,0-12.022,2.342c-7.059,3.566-9.281,7.258-10.2,9.1a5.44,5.44,0,0,0,.657,6.031,6.019,6.019,0,0,0,8.366,1.107,5.507,5.507,0,0,0,1.3-8,6.043,6.043,0,0,0-4.049-2.215c-.788-.123,0-2.462,5.094-4.8,10.457-4.553,17.251,2.585,17.251,15.261v7.138c-22.345,5.414-33.459,8.122-33.459,20.428,0,12.679,14.9,12.679,14.9,12.679,9.15,0,16.728-4.433,18.558-10.337l.454-.123c1.728,11.3,8.395,18.641,17.716,18.631,0,0,7.037.661,12.694-2.691,5.722-3.384,6.318-6.779,6.721-8.6a6.891,6.891,0,0,0-.915-5.984m-36.669-4.063a12.186,12.186,0,0,1-11.5,7.629c-7.974,0-10.326-6.155-10.326-9.724,0-7.382,6.666-12.8,21.826-16.241Z" transform="translate(184.634 30.177)" fill="#fff"/>
        <path id="Tracé_30" data-name="Tracé 30" d="M26.094,11.835l-3.816-1.028a10.149,10.149,0,0,1-7.222-6.79L13.978.422a.745.745,0,0,0-.951-.37.726.726,0,0,0-.392.37L11.545,4.017a10.155,10.155,0,0,1-7.218,6.794L.507,11.838a.654.654,0,0,0-.479.813.674.674,0,0,0,.479.45l3.82,1.028a10.151,10.151,0,0,1,7.211,6.794l1.093,3.595a.709.709,0,0,0,.864.454.686.686,0,0,0,.479-.454l1.093-3.595a10.145,10.145,0,0,1,7.211-6.794L26.1,13.1a.654.654,0,0,0,.479-.813.674.674,0,0,0-.479-.45Z" transform="translate(0.002 0)" fill="#fff"/>
        <path id="Tracé_31" data-name="Tracé 31" d="M92.55,70.067a6.4,6.4,0,0,1,3.079.8l3-61.389h-.015A6.01,6.01,0,0,0,92.55,3.417a6.077,6.077,0,0,0-6.064,6.064h-.015l2.876,61.48a6.337,6.337,0,0,1,3.2-.893" transform="translate(227.506 8.991)" fill="#fff"/>
        <path id="Tracé_32" data-name="Tracé 32" d="M16.385,16.118s.149-4.786,2.676-8.068a7.451,7.451,0,0,1,5.744-2.6V3.442S18.135,4.557,7.1,10.232Z" transform="translate(18.672 9.057)" fill="#fff"/>
        <path id="Tracé_33" data-name="Tracé 33" d="M68.309,80.684V53.978c0-14.771-7.32-19.814-18.039-19.814-8.5,0-18.3,6.892-20.257,13.907V9.774c-.011-1.155-.4-7.952-8.206-6.79h0L11.974,5V7c3.776-.069,6.536,1.932,6.536,6.238V80.684c0,6.278-.258,8.489-5.225,9.847v1.6H35.372v-1.6c-4.706-1.111-5.359-3.079-5.359-9.847v-30.4c2.091-4.183,6.928-9.844,13.464-9.844,9.15,0,13.591,5.167,13.591,14.03V80.684c0,6.278-.261,8.613-5.225,9.971v1.474H73.668V90.654c-4.575-1.111-5.359-3.2-5.359-9.971" transform="translate(31.503 7.503)" fill="#fff"/>
      </g>
    </g>
  </g>
</svg>
