<svg xmlns="http://www.w3.org/2000/svg" width="18.577" height="15.112" viewBox="0 0 18.577 15.112">
  <path id="mail" d="M35.345,75.723a2.907,2.907,0,0,1-2.9,2.9H22.913a2.907,2.907,0,0,1-2.9-2.9V69.661a2.884,2.884,0,0,1,.4-1.468l4.649,4.649a3.709,3.709,0,0,0,5.237,0l4.649-4.649a2.883,2.883,0,0,1,.4,1.468v6.062Zm-2.9-8.967H22.913a2.894,2.894,0,0,0-1.759.6l4.7,4.7a2.595,2.595,0,0,0,3.655,0l4.7-4.7A2.894,2.894,0,0,0,32.441,66.757Zm0-1.121H22.913a4.03,4.03,0,0,0-4.025,4.025v6.062a4.029,4.029,0,0,0,4.025,4.025h9.528a4.029,4.029,0,0,0,4.025-4.025V69.661A4.03,4.03,0,0,0,32.441,65.636Z" transform="translate(-18.388 -65.136)" fill="#fff" stroke="#fff" stroke-width="1" fill-rule="evenodd"/>
</svg>
