<svg xmlns="http://www.w3.org/2000/svg" width="51.881" height="61.378" viewBox="0 0 51.881 61.378">
  <g id="medal" transform="translate(-39.592)">
    <path id="Tracé_85" data-name="Tracé 85" d="M53,221.248,39.592,246.5l12.172-1.125,5.891,10.712,13.4-25.254Z" transform="translate(0 -194.712)" fill="#278289"/>
    <g id="Groupe_98" data-name="Groupe 98" transform="translate(50.665 26.535)">
      <path id="Tracé_86" data-name="Tracé 86" d="M135.786,278.816a1.711,1.711,0,0,0-.8-2.191l-.771-.411a1.65,1.65,0,0,1,1.587-2.892l2.18,1.157a1.376,1.376,0,0,0,1.865-.58l.054-.1a1.3,1.3,0,0,0-.5-1.835l-6.521-3.46a1.717,1.717,0,0,1-.814-2.193,1.654,1.654,0,0,1,2.272-.76l6.049,3.21a1.392,1.392,0,0,0,1.875-.576l.035-.088.01-.019a1.449,1.449,0,0,0-.6-1.971l-3.393-1.8a1.717,1.717,0,0,1-.808-2.2,1.66,1.66,0,0,1,2.272-.76l3.748,1.99a1.4,1.4,0,0,0,1.9-.645.087.087,0,0,0,.01-.019.092.092,0,0,0,.01-.019,1.4,1.4,0,0,0-.532-1.934l-4.043-2.145a1.713,1.713,0,0,1-.8-2.188,1.654,1.654,0,0,1,2.272-.76l9.975,5.294-13.4,25.254-3.694-6.714A1.571,1.571,0,0,0,135.786,278.816Z" transform="translate(-131.92 -251.328)" fill="#26969f"/>
      <path id="Tracé_87" data-name="Tracé 87" d="M227.863,221.248l13.4,25.254L229.1,245.377,223.2,256.089l-13.4-25.254Z" transform="translate(-200.459 -221.248)" fill="#26969f"/>
    </g>
    <path id="Tracé_88" data-name="Tracé 88" d="M226.342,278.83a1.711,1.711,0,0,1,.8-2.192l.771-.411a1.65,1.65,0,0,0-1.587-2.892l-2.18,1.157a1.376,1.376,0,0,1-1.865-.579l-.054-.1a1.3,1.3,0,0,1,.5-1.835l6.523-3.462a1.717,1.717,0,0,0,.814-2.193,1.654,1.654,0,0,0-2.272-.76l-6.049,3.21a1.391,1.391,0,0,1-1.875-.576l-.034-.088-.01-.019a1.448,1.448,0,0,1,.6-1.971l3.393-1.8a1.717,1.717,0,0,0,.808-2.2,1.66,1.66,0,0,0-2.272-.76l-3.752,1.994a1.4,1.4,0,0,1-1.9-.645.089.089,0,0,1-.01-.019.092.092,0,0,1-.01-.019,1.4,1.4,0,0,1,.532-1.934l4.043-2.145a1.713,1.713,0,0,0,.8-2.188,1.654,1.654,0,0,0-2.272-.76l-9.975,5.294,13.4,25.254,3.694-6.714A1.6,1.6,0,0,1,226.342,278.83Z" transform="translate(-149.808 -224.807)" fill="#278289"/>
    <circle id="Ellipse_17" data-name="Ellipse 17" cx="22.396" cy="22.396" r="22.396" transform="translate(43.136 0)" fill="#005359"/>
    <path id="Tracé_89" data-name="Tracé 89" d="M95.057,32.162H80.864a2.017,2.017,0,0,1-2.009-2.009l.015-.138v-.031a2.1,2.1,0,0,1,2.1-2.117h9.837a2.488,2.488,0,0,0,2.531-2.27,2.4,2.4,0,0,0-2.393-2.516H80.526a2.028,2.028,0,0,1-1.994-2.117V20.9a2.028,2.028,0,0,1,1.994-2.117h10.9a2.483,2.483,0,0,0,2.516-2.255,2.4,2.4,0,0,0-2.393-2.516H83.568a22.393,22.393,0,0,0,0,41.425H93.708a2.483,2.483,0,0,0,2.516-2.255,2.4,2.4,0,0,0-2.393-2.514l-11.533,0a2.386,2.386,0,0,1-2.383-2.516A2.479,2.479,0,0,1,82.432,45.9H86.9a2.39,2.39,0,0,0-.069-4.778H80.056a1.993,1.993,0,0,1-1.994-2.009V38.94a1.887,1.887,0,0,1,1.886-2.009h14.97a2.487,2.487,0,0,0,2.531-2.255A2.4,2.4,0,0,0,95.057,32.162Z" transform="translate(-26.486 -12.335)" fill="#005359"/>
    <path id="Tracé_90" data-name="Tracé 90" d="M138.571,85.412a15.986,15.986,0,1,1,15.987-15.985A16.006,16.006,0,0,1,138.571,85.412Z" transform="translate(-73.038 -47.031)" fill="#26969f"/>
    <path id="Tracé_91" data-name="Tracé 91" d="M246.7,69.765a15.994,15.994,0,0,0-15.07-15.941h-1.489a1.9,1.9,0,0,0-1.919,1.719,1.829,1.829,0,0,0,1.825,1.919l8.8,0a1.819,1.819,0,0,1,1.817,1.919,1.89,1.89,0,0,1-1.921,1.723h-3.41a1.822,1.822,0,0,0,.052,3.644h5.17a1.52,1.52,0,0,1,1.52,1.531v.127a1.438,1.438,0,0,1-1.439,1.531H229.221a1.9,1.9,0,0,0-1.93,1.719,1.829,1.829,0,0,0,1.825,1.919h10.823a1.537,1.537,0,0,1,1.531,1.531l-.012.106v.023a1.6,1.6,0,0,1-1.6,1.614h-7.5a1.9,1.9,0,0,0-1.931,1.731,1.835,1.835,0,0,0,1.825,1.919h7.947a1.546,1.546,0,0,1,1.52,1.614v.046a1.546,1.546,0,0,1-1.52,1.614h-8.315A1.9,1.9,0,0,0,229.96,83.5a1.827,1.827,0,0,0,1.825,1.919h2.193A16.013,16.013,0,0,0,246.7,69.765Z" transform="translate(-165.185 -47.369)" fill="#d1a08d" opacity="0.2"/>
    <text id="_15" data-name="15" transform="translate(54.881 28.076)" fill="#fff" font-size="17" font-family="AmsiPro-Ultra" letter-spacing="0.015em"><tspan x="0" y="0">15</tspan></text>
  </g>
</svg>
