<svg xmlns="http://www.w3.org/2000/svg" xmlns:xlink="http://www.w3.org/1999/xlink" width="11.099" height="10.428" viewBox="0 0 11.099 10.428">
  <defs>
    <clipPath id="clip-path">
      <rect id="Rectangle_30" data-name="Rectangle 30" width="11.099" height="10.428" fill="#fff"/>
    </clipPath>
  </defs>
  <g id="Groupe_18" data-name="Groupe 18" transform="translate(0 0)">
    <g id="Groupe_16" data-name="Groupe 16" transform="translate(0 0)" clip-path="url(#clip-path)">
      <path id="Tracé_43" data-name="Tracé 43" d="M10.886,4.937,9.294,4.508A4.234,4.234,0,0,1,6.281,1.676l-.45-1.5a.311.311,0,0,0-.4-.155.3.3,0,0,0-.164.155l-.454,1.5A4.236,4.236,0,0,1,1.805,4.51L.212,4.938a.273.273,0,0,0-.2.339.281.281,0,0,0,.2.188l1.594.429A4.235,4.235,0,0,1,4.814,8.728l.456,1.5a.3.3,0,0,0,.361.189.286.286,0,0,0,.2-.189l.456-1.5A4.232,4.232,0,0,1,9.294,5.894l1.594-.429a.273.273,0,0,0,.2-.339.281.281,0,0,0-.2-.188Z" transform="translate(0 0)" fill="#fff"/>
    </g>
  </g>
</svg>
