<svg id="Meteor_Rain" xmlns="http://www.w3.org/2000/svg" width="37.03" height="37.062" viewBox="0 0 37.03 37.062">
  <path id="Tracé_46" data-name="Tracé 46" d="M317.053,323.7a1.219,1.219,0,0,1-1.217-1.226l.014-1.976-1.62-1.132a1.216,1.216,0,0,1,.329-2.156l1.884-.6.576-1.891a1.216,1.216,0,0,1,2.152-.354l1.151,1.607,1.976-.037a1.216,1.216,0,0,1,1,1.937l-1.173,1.591.646,1.868a1.216,1.216,0,0,1-1.533,1.551l-1.875-.624-1.577,1.191A1.211,1.211,0,0,1,317.053,323.7Zm-1.829-5.285,1.689,1.18a.675.675,0,0,1,.288.558l-.014,2.06,1.644-1.242a.675.675,0,0,1,.62-.1l1.955.65-.673-1.947a.675.675,0,0,1,.095-.621l1.222-1.658-2.059.038a.677.677,0,0,1-.561-.282l-1.2-1.675-.6,1.97a.675.675,0,0,1-.441.447Z" transform="translate(-286.504 -286.64)" fill="#9a432a"/>
  <path id="Tracé_47" data-name="Tracé 47" d="M328.545,239.555a1.041,1.041,0,0,1-1.039-1.046l.008-1.21-.992-.693a1.038,1.038,0,0,1,.28-1.84l1.154-.366.353-1.158a1.038,1.038,0,0,1,1.837-.3l.7.984,1.21-.023a1.038,1.038,0,0,1,.855,1.654l-.718.974.4,1.144A1.038,1.038,0,0,1,331.283,239l-1.148-.382-.966.729a1.034,1.034,0,0,1-.625.211Zm-.733-3.694.765.535a.675.675,0,0,1,.288.558l-.006.934.745-.563a.675.675,0,0,1,.62-.1l.886.295-.3-.882a.675.675,0,0,1,.095-.621l.554-.751-.933.017a.679.679,0,0,1-.561-.282l-.544-.759-.272.893a.675.675,0,0,1-.441.447Z" transform="translate(-297.481 -214.432)" fill="#9a432a"/>
  <path id="Tracé_48" data-name="Tracé 48" d="M234.868,333.23a1.041,1.041,0,0,1-1.039-1.046l.008-1.21-.992-.693a1.038,1.038,0,0,1,.281-1.84l1.154-.366.352-1.158a1.038,1.038,0,0,1,1.837-.3l.7.984,1.21-.023a1.038,1.038,0,0,1,.855,1.654l-.718.974.4,1.144a1.038,1.038,0,0,1-1.309,1.324l-1.149-.382-.966.73a1.034,1.034,0,0,1-.624.211Zm-.732-3.694.765.535a.675.675,0,0,1,.288.558l-.006.934.745-.563a.675.675,0,0,1,.62-.1l.886.295-.3-.882a.675.675,0,0,1,.095-.621l.554-.751-.933.017a.679.679,0,0,1-.561-.282l-.544-.759-.272.893a.675.675,0,0,1-.441.447Z" transform="translate(-214.34 -297.572)" fill="#9a432a"/>
  <path id="Tracé_49" data-name="Tracé 49" d="M317.053,323.7a1.219,1.219,0,0,1-1.217-1.226l.014-1.976-1.62-1.132a1.216,1.216,0,0,1,.329-2.156l1.884-.6.576-1.891a1.216,1.216,0,0,1,2.152-.354l1.151,1.607,1.976-.037a1.216,1.216,0,0,1,1,1.937l-1.173,1.591.646,1.868a1.216,1.216,0,0,1-1.533,1.551l-1.875-.624-1.577,1.191A1.211,1.211,0,0,1,317.053,323.7Zm-1.829-5.285,1.689,1.18a.675.675,0,0,1,.288.558l-.014,2.06,1.644-1.242a.675.675,0,0,1,.62-.1l1.955.65-.673-1.947a.675.675,0,0,1,.095-.621l1.222-1.658-2.059.038a.677.677,0,0,1-.561-.282l-1.2-1.675-.6,1.97a.675.675,0,0,1-.441.447Z" transform="translate(-286.504 -286.64)" fill="#9a432a"/>
  <path id="Tracé_50" data-name="Tracé 50" d="M328.545,239.555a1.041,1.041,0,0,1-1.039-1.046l.008-1.21-.992-.693a1.038,1.038,0,0,1,.28-1.84l1.154-.366.353-1.158a1.038,1.038,0,0,1,1.837-.3l.7.984,1.21-.023a1.038,1.038,0,0,1,.855,1.654l-.718.974.4,1.144A1.038,1.038,0,0,1,331.283,239l-1.148-.382-.966.729a1.034,1.034,0,0,1-.625.211Zm-.733-3.694.765.535a.675.675,0,0,1,.288.558l-.006.934.745-.563a.675.675,0,0,1,.62-.1l.886.295-.3-.882a.675.675,0,0,1,.095-.621l.554-.751-.933.017a.679.679,0,0,1-.561-.282l-.544-.759-.272.893a.675.675,0,0,1-.441.447Z" transform="translate(-297.481 -214.432)" fill="#9a432a"/>
  <path id="Tracé_51" data-name="Tracé 51" d="M234.868,333.23a1.041,1.041,0,0,1-1.039-1.046l.008-1.21-.992-.693a1.038,1.038,0,0,1,.281-1.84l1.154-.366.352-1.158a1.038,1.038,0,0,1,1.837-.3l.7.984,1.21-.023a1.038,1.038,0,0,1,.855,1.654l-.718.974.4,1.144a1.038,1.038,0,0,1-1.309,1.324l-1.149-.382-.966.73a1.034,1.034,0,0,1-.624.211Zm-.732-3.694.765.535a.675.675,0,0,1,.288.558l-.006.934.745-.563a.675.675,0,0,1,.62-.1l.886.295-.3-.882a.675.675,0,0,1,.095-.621l.554-.751-.933.017a.679.679,0,0,1-.561-.282l-.544-.759-.272.893a.675.675,0,0,1-.441.447Z" transform="translate(-214.34 -297.572)" fill="#9a432a"/>
  <path id="Tracé_52" data-name="Tracé 52" d="M175.639,176.314a.673.673,0,0,1-.477-.2l-16.467-16.467a.675.675,0,0,1,.954-.954l16.467,16.467a.675.675,0,0,1-.477,1.152Z" transform="translate(-148.748 -148.748)" fill="#9a432a"/>
  <path id="Tracé_53" data-name="Tracé 53" d="M182.634,89.633a.673.673,0,0,1-.477-.2L165.69,72.968a.675.675,0,1,1,.954-.954l16.467,16.467a.675.675,0,0,1-.477,1.152Z" transform="translate(-154.957 -71.816)" fill="#9a432a"/>
  <path id="Tracé_54" data-name="Tracé 54" d="M88.958,183.309a.673.673,0,0,1-.477-.2L72.014,166.644a.675.675,0,0,1,.954-.954l16.467,16.467a.675.675,0,0,1-.477,1.152Z" transform="translate(-71.816 -154.956)" fill="#9a432a"/>
</svg>
