<svg id="XMLID_6084_" xmlns="http://www.w3.org/2000/svg" width="37.03" height="27.784" viewBox="0 0 37.03 27.784">
  <path id="XMLID_10_" d="M9.976,35.6a.691.691,0,0,1-.6-.346l-2.5-4.336a.692.692,0,0,1,.253-.945,2.337,2.337,0,1,0-2.337-4.047.7.7,0,0,1-.525.069.689.689,0,0,1-.42-.323l-2.5-4.336a.7.7,0,0,1-.069-.525.689.689,0,0,1,.323-.42L23.017,8.021a.691.691,0,0,1,.945.253l2.5,4.336a.692.692,0,0,1-.253.945A2.337,2.337,0,0,0,28.55,17.6a.692.692,0,0,1,.945.253L32,22.192a.692.692,0,0,1-.253.945L10.321,35.506a.687.687,0,0,1-.345.093Zm-1.59-4.829,1.844,3.192L30.454,22.285l-1.843-3.193a3.723,3.723,0,0,1-3.658-6.335L23.11,9.565,2.885,21.242l1.843,3.193a3.722,3.722,0,0,1,3.657,6.334Z" transform="translate(-1.247 -7.927)" fill="#9a432a"/>
  <path id="XMLID_9_" d="M21.86,35.761a.692.692,0,0,1-.6-.342L19.846,33a.692.692,0,0,1,1.193-.7l1.069,1.822,20.229-11.68-1.843-3.193a3.722,3.722,0,0,1-3.657-6.333L34.993,9.728l-1.659.959a.692.692,0,0,1-.692-1.2l2.259-1.3a.692.692,0,0,1,.945.253l2.5,4.336a.692.692,0,0,1-.253.945,2.337,2.337,0,0,0,2.337,4.048.692.692,0,0,1,.945.253l2.5,4.335a.692.692,0,0,1-.253.945L22.2,35.669a.687.687,0,0,1-.345.093Z" transform="translate(-6.945 -7.978)" fill="#9a432a"/>
  <path id="XMLID_8_" d="M26.135,15.725a.691.691,0,0,1-.6-.346l-.91-1.576a.692.692,0,1,1,1.2-.692l.91,1.576a.692.692,0,0,1-.6,1.038Z" transform="translate(-8.417 -9.417)" fill="#9a432a"/>
  <path id="XMLID_7_" d="M29.462,21.489a.691.691,0,0,1-.6-.346L27.83,19.355a.692.692,0,0,1,1.2-.692l1.033,1.788a.692.692,0,0,1-.6,1.038Z" transform="translate(-9.404 -11.126)" fill="#9a432a"/>
  <path id="XMLID_6_" d="M32.869,27.389a.691.691,0,0,1-.6-.346l-1.032-1.788a.692.692,0,1,1,1.2-.692l1.032,1.788a.692.692,0,0,1-.6,1.038Z" transform="translate(-10.453 -12.943)" fill="#9a432a"/>
  <path id="XMLID_5_" d="M36.048,32.894a.691.691,0,0,1-.6-.346l-.881-1.526a.692.692,0,0,1,1.2-.692l.881,1.526a.692.692,0,0,1-.6,1.038Z" transform="translate(-11.478 -14.719)" fill="#9a432a"/>
  <path id="XMLID_2_" d="M19.17,32.573a.639.639,0,0,1-.073,0,.691.691,0,0,1-.577-.448l-.846-2.292-2.368-.6a.692.692,0,0,1-.259-1.214L16.966,26.5l-.158-2.438a.692.692,0,0,1,1.075-.62L19.914,24.8l2.269-.9a.692.692,0,0,1,.922.831l-.662,2.352L24,28.954a.692.692,0,0,1-.5,1.134l-2.441.1-1.3,2.066a.691.691,0,0,1-.585.322Zm-2.163-4.341,1.361.346a.691.691,0,0,1,.479.43l.487,1.318.75-1.188a.693.693,0,0,1,.558-.322l1.4-.055-.9-1.08a.691.691,0,0,1-.134-.63l.381-1.352-1.305.52a.691.691,0,0,1-.64-.067l-1.168-.78.091,1.4a.694.694,0,0,1-.262.588Z" transform="translate(-5.416 -12.668)" fill="#9a432a"/>
</svg>
